<?xml version="1.0" encoding="UTF-8" standalone="no" ?>
<!DOCTYPE svg PUBLIC "-//W3C//DTD SVG 1.1//EN" "http://www.w3.org/Graphics/SVG/1.1/DTD/svg11.dtd">
<svg xmlns="http://www.w3.org/2000/svg" xmlns:xlink="http://www.w3.org/1999/xlink" version="1.1" width="700" height="400" viewBox="0 0 700 400" xml:space="preserve">
<desc>Created with Fabric.js 5.2.4</desc>
<defs>
</defs>
<rect x="0" y="0" width="100%" height="100%" fill="transparent"></rect>
<g transform="matrix(Infinity NaN NaN Infinity 0 0)" id="fc5521bc-0f5a-4d85-8402-f5237b964b86"  >
</g>
<g transform="matrix(1 0 0 1 350 200)" id="02251cd6-62c6-4ce8-b696-5169006f3de3"  >
<rect style="stroke: none; stroke-width: 1; stroke-dasharray: none; stroke-linecap: butt; stroke-dashoffset: 0; stroke-linejoin: miter; stroke-miterlimit: 4; fill: rgb(0,0,0); fill-rule: nonzero; opacity: 1;" vector-effect="non-scaling-stroke"  x="-350" y="-200" rx="0" ry="0" width="700" height="400" />
</g>
<g transform="matrix(NaN NaN NaN NaN 0 0)"  >
<g style=""   >
</g>
</g>
<g transform="matrix(1.34 0 0 1.34 350 200)" id="Layer_1"  >
<path style="stroke: none; stroke-width: 1; stroke-dasharray: none; stroke-linecap: butt; stroke-dashoffset: 0; stroke-linejoin: miter; stroke-miterlimit: 4; fill: rgb(0,216,255); fill-rule: evenodd; opacity: 1;"  transform=" translate(-61.44, -54.72)" d="M 122.88 54.73 C 122.88 46.589999999999996 112.69 38.879999999999995 97.06 34.089999999999996 C 100.67 18.159999999999997 99.06 5.489999999999995 92 1.4299999999999997 C 90.37 0.47999999999999976 88.47 0.029999999999999805 86.39 0.029999999999999805 L 86.39 5.619999999999999 C 87.54 5.619999999999999 88.47 5.85 89.25 6.27 C 92.66 8.219999999999999 94.13 15.66 92.98 25.23 C 92.7 27.580000000000002 92.25 30.060000000000002 91.7 32.59 C 86.79 31.390000000000004 81.43 30.460000000000004 75.8 29.860000000000003 C 72.42 25.230000000000004 68.91 21.020000000000003 65.38 17.340000000000003 C 73.54 9.74 81.2 5.59 86.41 5.59 L 86.41 0 L 86.41 0 C 79.52 0 70.50999999999999 4.91 61.39 13.43 C 52.27 4.96 43.26 0.1 36.37 0.1 L 36.37 5.6899999999999995 C 41.55 5.6899999999999995 49.239999999999995 9.82 57.41 17.36 C 53.9 21.04 50.4 25.22 47.06999999999999 29.86 C 41.41 30.46 36.05 31.39 31.139999999999993 32.61 C 30.559999999999995 30.11 30.139999999999993 27.68 29.839999999999993 25.35 C 28.659999999999993 15.780000000000001 30.119999999999994 8.34 33.49999999999999 6.360000000000003 C 34.24999999999999 5.910000000000003 35.22999999999999 5.710000000000003 36.379999999999995 5.710000000000003 L 36.379999999999995 0.13 L 36.379999999999995 0.13 C 34.279999999999994 0.13 32.37 0.5800000000000001 30.719999999999995 1.5299999999999998 C 23.679999999999996 5.59 22.099999999999994 18.240000000000002 25.739999999999995 34.120000000000005 C 10.14 38.92 0 46.61 0 54.73 C 0 62.87 10.19 70.58 25.82 75.37 C 22.21 91.30000000000001 23.82 103.97 30.88 108.03 C 32.51 108.98 34.41 109.43 36.519999999999996 109.43 C 43.41 109.43 52.419999999999995 104.52000000000001 61.53999999999999 96 C 70.66 104.47 79.66999999999999 109.33 86.55999999999999 109.33 C 88.65999999999998 109.33 90.57 108.88 92.21999999999998 107.92999999999999 C 99.25999999999999 103.86999999999999 100.83999999999999 91.22 97.19999999999999 75.33999999999999 C 112.74 70.56 122.88 62.84 122.88 54.73 L 122.88 54.73 z M 72.86 54.73 C 72.86 48.41 67.74 43.28 61.41 43.28 C 55.089999999999996 43.28 49.959999999999994 48.4 49.959999999999994 54.730000000000004 C 49.959999999999994 61.06000000000001 55.07999999999999 66.18 61.41 66.18 C 67.74 66.17 72.86 61.05 72.86 54.73 L 72.86 54.73 z M 36.34 0.1 L 36.34 0.1 L 36.34 0.1 L 36.34 0.1 z M 90.27 38.02 C 89.33999999999999 41.25 88.19 44.580000000000005 86.89 47.910000000000004 C 85.86 45.910000000000004 84.79 43.900000000000006 83.61 41.900000000000006 C 82.46 39.900000000000006 81.23 37.940000000000005 80 36.040000000000006 C 83.56 36.57 86.99 37.22 90.27 38.02 L 90.27 38.02 z M 78.8 64.7 C 76.85 68.08 74.84 71.29 72.75999999999999 74.27000000000001 C 69.02999999999999 74.60000000000001 65.24999999999999 74.77000000000001 61.43999999999999 74.77000000000001 C 57.65999999999999 74.77000000000001 53.87999999999999 74.59 50.16999999999999 74.29 C 48.08999999999999 71.31 46.05999999999999 68.13000000000001 44.109999999999985 64.77000000000001 C 42.20999999999999 61.49000000000001 40.47999999999998 58.16000000000001 38.899999999999984 54.80000000000001 C 40.44999999999998 51.44000000000001 42.20999999999999 48.09000000000001 44.079999999999984 44.81000000000001 C 46.02999999999999 41.43000000000001 48.039999999999985 38.22000000000001 50.11999999999998 35.24000000000001 C 53.84999999999998 34.91000000000001 57.62999999999998 34.74000000000001 61.43999999999998 34.74000000000001 C 65.21999999999998 34.74000000000001 68.99999999999999 34.92000000000001 72.70999999999998 35.220000000000006 C 74.78999999999998 38.2 76.81999999999998 41.38000000000001 78.76999999999998 44.74000000000001 C 80.66999999999999 48.02000000000001 82.39999999999998 51.35000000000001 83.97999999999998 54.71000000000001 C 82.4 58.06 80.68 61.41 78.8 64.7 L 78.8 64.7 z M 86.89 61.44 C 88.24 64.8 89.39 68.14999999999999 90.35 71.41 C 87.07 72.21 83.61 72.89 80.03 73.41 C 81.26 71.47999999999999 82.48 69.5 83.64 67.47 C 84.78 65.47 85.86 63.44 86.89 61.44 L 86.89 61.44 z M 61.49 88.16 C 59.160000000000004 85.75999999999999 56.83 83.08 54.53 80.14999999999999 C 56.78 80.24999999999999 59.09 80.33 61.42 80.33 C 63.77 80.33 66.1 80.28 68.38 80.14999999999999 C 66.12 83.08 63.79 85.76 61.49 88.16 L 61.49 88.16 z M 42.86 73.41 C 39.3 72.88 35.87 72.22999999999999 32.59 71.42999999999999 C 33.52 68.19999999999999 34.67 64.86999999999999 35.970000000000006 61.53999999999999 C 37.00000000000001 63.53999999999999 38.07000000000001 65.55 39.25000000000001 67.55 C 40.43 69.56 41.63 71.51 42.86 73.41 L 42.86 73.41 z M 61.36 21.29 C 63.69 23.689999999999998 66.02 26.369999999999997 68.32 29.299999999999997 C 66.07 29.199999999999996 63.75999999999999 29.119999999999997 61.42999999999999 29.119999999999997 C 59.07999999999999 29.119999999999997 56.74999999999999 29.169999999999998 54.46999999999999 29.299999999999997 C 56.73 26.37 59.06 23.69 61.36 21.29 L 61.36 21.29 z M 42.83 36.04 C 41.6 37.97 40.379999999999995 39.95 39.22 41.98 C 38.07 43.98 36.99 45.989999999999995 35.96 47.989999999999995 C 34.61 44.629999999999995 33.46 41.279999999999994 32.5 38.019999999999996 C 35.79 37.24 39.25 36.57 42.83 36.04 L 42.83 36.04 z M 20.16 67.4 C 11.290000000000001 63.620000000000005 5.5600000000000005 58.660000000000004 5.5600000000000005 54.730000000000004 C 5.5600000000000005 50.800000000000004 11.3 45.81 20.16 42.06 C 22.31 41.13 24.67 40.31 27.1 39.53 C 28.53 44.44 30.41 49.55 32.74 54.78 C 30.44 59.99 28.580000000000002 65.07 27.180000000000003 69.96000000000001 C 24.7 69.18 22.34 68.33 20.16 67.4 L 20.16 67.4 z M 33.64 103.19 C 30.23 101.24 28.76 93.8 29.91 84.22999999999999 C 30.19 81.88 30.64 79.39999999999999 31.19 76.86999999999999 C 36.1 78.07 41.46 78.99999999999999 47.09 79.6 C 50.470000000000006 84.22999999999999 53.980000000000004 88.44 57.510000000000005 92.11999999999999 C 49.34 99.71 41.68000000000001 103.86999999999999 36.470000000000006 103.86999999999999 C 35.34 103.84 34.39 103.62 33.64 103.19 L 33.64 103.19 z M 93.05 84.11 C 94.23 93.68 92.77 101.12 89.39 103.1 C 88.64 103.55 87.66 103.75 86.51 103.75 C 81.33000000000001 103.75 73.64 99.62 65.47 92.08 C 68.98 88.39999999999999 72.48 84.22 75.81 79.58 C 81.47 78.98 86.83 78.05 91.74000000000001 76.82 C 92.32 79.35 92.77 81.78 93.05 84.11 L 93.05 84.11 z M 102.69 67.4 C 100.53999999999999 68.33000000000001 98.17999999999999 69.15 95.75 69.93 C 94.32 65.02000000000001 92.44 59.91000000000001 90.11 54.68000000000001 C 92.41 49.470000000000006 94.27 44.39000000000001 95.67 39.50000000000001 C 98.15 40.28000000000001 100.5 41.13000000000001 102.71000000000001 42.050000000000004 C 111.58000000000001 45.830000000000005 117.31 50.790000000000006 117.31 54.720000000000006 C 117.29 58.66 111.56 63.64 102.69 67.4 L 102.69 67.4 z" stroke-linecap="round" />
</g>
</svg>