<?xml version="1.0" encoding="UTF-8" standalone="no" ?>
<!DOCTYPE svg PUBLIC "-//W3C//DTD SVG 1.1//EN" "http://www.w3.org/Graphics/SVG/1.1/DTD/svg11.dtd">
<svg xmlns="http://www.w3.org/2000/svg" xmlns:xlink="http://www.w3.org/1999/xlink" version="1.1" width="700" height="400" viewBox="0 0 700 400" xml:space="preserve">
<desc>Created with Fabric.js 5.2.4</desc>
<defs>
</defs>
<rect x="0" y="0" width="100%" height="100%" fill="transparent"></rect>
<g transform="matrix(Infinity NaN NaN Infinity 0 0)" id="fc5521bc-0f5a-4d85-8402-f5237b964b86"  >
</g>
<g transform="matrix(1 0 0 1 350 200)" id="02251cd6-62c6-4ce8-b696-5169006f3de3"  >
<rect style="stroke: none; stroke-width: 1; stroke-dasharray: none; stroke-linecap: butt; stroke-dashoffset: 0; stroke-linejoin: miter; stroke-miterlimit: 4; fill: rgb(255,136,96); fill-rule: nonzero; opacity: 1;" vector-effect="non-scaling-stroke"  x="-350" y="-200" rx="0" ry="0" width="700" height="400" />
</g>
<g transform="matrix(1.35 0 0 1.35 350 200)"  >
<g style=""   >
		<g transform="matrix(1 0 0 1 0 0)"  >
<path style="stroke: none; stroke-width: 1; stroke-dasharray: none; stroke-linecap: butt; stroke-dashoffset: 0; stroke-linejoin: miter; stroke-miterlimit: 4; fill: rgb(255,62,0); fill-rule: nonzero; opacity: 1;" vector-effect="non-scaling-stroke"  transform=" translate(-51.13, -61.44)" d="M 95.73 16.26 C 84.32 -0.07 61.78 -4.91 45.49 5.47 L 16.87 23.71 C 9.041065643331088 28.617634106222283 3.6426843331576286 36.597218584878156 2.0000000000000036 45.69000000000002 C 1.6371002145117606 47.71659582954121 1.453058480053443 49.77117082876674 1.4499999999999957 51.83 C 1.4680601716257418 57.42765232229386 2.8404505174727586 62.93779956086965 5.449999999999997 67.89 C 3.002710812148638 71.60707671211452 1.3325569248432423 75.78076066267198 0.5399999999999965 80.16000000000001 C -1.0990025921906064 89.42796849201818 1.0636982496861824 98.96547920469482 6.54 106.61999999999999 C 17.95 122.95 40.54 127.79 56.78 117.41 L 85.37 99.17 C 93.19457627621281 94.2561146740902 98.58028529789124 86.26652610518084 100.2 77.17 C 100.56784202720756 75.14743709240936 100.75192582704746 73.09573946873914 100.75 71.04000000000002 C 100.7429595295178 65.45341224668688 99.38794308345233 59.951016349246316 96.80000000000001 55.00000000000002 C 99.24604617542079 51.28592521637726 100.91615206128442 47.11576265819229 101.71 42.74000000000001 C 102.06463100222808 40.71582448001946 102.24529085374112 38.66500061006591 102.25 36.609999999999985 C 102.25170494202038 29.318944536885525 99.97184391620293 22.210114068347327 95.73 16.279999999999994 Z M 95.73 16.26 Z" stroke-linecap="round" />
</g>
		<g transform="matrix(1 0 0 1 0 0.01)"  >
<path style="stroke: none; stroke-width: 1; stroke-dasharray: none; stroke-linecap: butt; stroke-dashoffset: 0; stroke-linejoin: miter; stroke-miterlimit: 4; fill: rgb(255,255,255); fill-rule: nonzero; opacity: 1;" vector-effect="non-scaling-stroke"  transform=" translate(-51.13, -61.44)" d="M 42.69 108.16 C 40.821627991090836 108.64295661974377 38.89978183155396 108.8882271960483 36.97 108.89 C 29.518707731293773 108.89180487838286 22.54099973453104 105.23663700434217 18.300000000000004 99.11 C 15.74823405739931 95.54272219343929 14.377444122815985 91.26599747406325 14.379999999999999 86.88 C 14.381390411971223 85.64644628510095 14.488448451246112 84.41527883343969 14.699999999999998 83.19999999999999 C 14.869867842949374 82.29553439994426 15.100388275556632 81.40352055202919 15.389999999999995 80.53 L 15.93 78.88999999999999 L 17.39 80 C 20.779377175701065 82.48727291888163 24.56655535947406 84.38086201076813 28.590000000000003 85.6 L 29.65 85.91999999999999 L 29.549999999999997 86.97999999999999 C 29.549999999999997 87.16 29.549999999999997 87.35 29.549999999999997 87.52999999999999 C 29.54794809180167 88.85619596307414 29.960521886714094 90.14985955729107 30.729999999999997 91.22999999999999 C 31.992484327574974 93.09726035343033 34.09601890959691 94.22014358226765 36.349999999999994 94.22999999999999 C 36.93047795521387 94.23205077422497 37.50872594660805 94.15808882183735 38.06999999999999 94.00999999999999 C 38.6926846098692 93.84511468509456 39.2862950007156 93.58541013909927 39.82999999999999 93.24 L 68.42 74.91 C 70.16341858882794 73.80600295358177 71.21717595147061 71.88355672567813 71.21000000000001 69.82 C 71.2018918231689 68.49382401403923 70.77876657833323 67.20346686243295 70 66.13 C 68.71851298332223 64.28660831303988 66.61506092892701 63.188180419625674 64.36999999999999 63.19 C 63.78952204478613 63.187949225775014 63.211274053391946 63.26191117816264 62.65 63.41 C 62.02925985374907 63.571479312813 61.438427152490114 63.83144570136694 60.900000000000006 64.17999999999999 L 50 71.14 C 48.20322569914904 72.27853638445836 46.244332234443256 73.13829169168723 44.19 73.69 C 42.32138753237586 74.1717048295322 40.399700190642356 74.41695513713105 38.47 74.42 C 31.021825705235702 74.41892590890136 24.04673726808148 70.76886623932467 19.800000000000004 64.65 C 17.25125998515094 61.081202720401826 15.88078954206989 56.805474781911705 15.879999999999999 52.42 C 15.881390411971223 51.186446285100956 15.988448451246118 49.955278833439685 16.200000000000003 48.74000000000001 C 17.188478314554295 43.27505854277113 20.424439542718986 38.47553308889009 25.119999999999994 35.510000000000005 L 53.74 17.28 C 55.535733716386154 16.137147173471458 57.49478455504991 15.2739509347487 59.54999999999999 14.720000000000002 C 61.41892207434844 14.241043379027458 63.340681874017754 13.999143544104045 65.26999999999998 13.999999999999998 C 72.73710389090571 13.980827596048181 79.73778503615077 17.628806665860868 84 23.76000000000001 C 86.53296318314148 27.33753530030649 87.88589507187866 31.616575692591557 87.87 36 C 87.86859339354078 37.236867720525225 87.76153758436305 38.471355020105996 87.55000000000001 39.69 C 87.38013215705064 40.594465600055734 87.14961172444337 41.4864794479708 86.86000000000001 42.36 L 86.32 44 L 84.86 42.93 C 81.47296951465444 40.438887744031206 77.68510809598236 38.544957034695166 73.66 37.33 L 72.6 37 L 72.69999999999999 35.94 C 72.69999999999999 35.76 72.69999999999999 35.57 72.69999999999999 35.39 C 72.70014786557797 34.06100770871793 72.28785235734637 32.764722678599924 71.51999999999998 31.68 C 70.24053026337366 29.83951068996443 68.14152662020751 28.74145540332591 65.89999999999998 28.74 C 65.32446826732874 28.752719170768582 64.75302424575693 28.84011649171486 64.2 29 C 63.57514770147575 29.15861954688723 62.98057444031889 29.418745348643355 62.440000000000005 29.77 L 33.82 48 C 32.40360972988196 48.89868675991325 31.42809806228436 50.3492617303186 31.13 52 C 31.059426243673524 52.34945706663173 31.0159635172619 52.70384545121885 31 53.06 C 30.99936480332302 54.3828859159064 31.411902977399496 55.672941731450635 32.18 56.75 C 33.45830346282607 58.59181146324791 35.55805237720231 59.6902566248611 37.8 59.69 C 38.38047795521387 59.69205077422498 38.958725946608055 59.618088821837354 39.519999999999996 59.47 C 40.14421506298512 59.30952768074354 40.738497319503715 59.049529193516655 41.279999999999994 58.699999999999996 L 52.199999999999996 51.699999999999996 C 53.99582500887754 50.55968142260143 55.9549986778268 49.69980313416414 58.01 49.14999999999999 C 59.878492607858824 48.66767092099478 61.80025904446354 48.422410519120405 63.729999999999976 48.42 C 71.1812876845767 48.41951146391723 78.16007910675059 52.069553872623814 82.41 58.19 C 84.95874001484906 61.75879727959818 86.3292104579301 66.03452521808829 86.33 70.41999999999999 C 86.33263950847117 71.66742442436399 86.22218748992661 72.91251990613904 86 74.14 C 85.0161985461051 79.60684129227499 81.77907534779797 84.40809016151303 77.08 87.37 L 48.51 105.6 C 46.7111741433559 106.7437753806282 44.74868599699698 107.6070004072053 42.69 108.16 Z M 42.69 108.16 Z" stroke-linecap="round" />
</g>
</g>
</g>
<g transform="matrix(NaN NaN NaN NaN 0 0)"  >
<g style=""   >
</g>
</g>
</svg>