<?xml version="1.0" encoding="UTF-8" standalone="no" ?>
<!DOCTYPE svg PUBLIC "-//W3C//DTD SVG 1.1//EN" "http://www.w3.org/Graphics/SVG/1.1/DTD/svg11.dtd">
<svg xmlns="http://www.w3.org/2000/svg" xmlns:xlink="http://www.w3.org/1999/xlink" version="1.1" width="700" height="400" viewBox="0 0 700 400" xml:space="preserve">
<desc>Created with Fabric.js 5.2.4</desc>
<defs>
</defs>
<g transform="matrix(1 0 0 1 350 200)" id="9e7072fa-d6b0-41c2-8c01-7ea0b2d1750c"  >
<rect style="stroke: none; stroke-width: 1; stroke-dasharray: none; stroke-linecap: butt; stroke-dashoffset: 0; stroke-linejoin: miter; stroke-miterlimit: 4; fill: rgb(133,229,184); fill-rule: nonzero; opacity: 1;" vector-effect="non-scaling-stroke"  x="-350" y="-200" rx="0" ry="0" width="700" height="400" />
</g>
<g transform="matrix(Infinity NaN NaN Infinity 0 0)" id="184bb652-cd5d-4f0c-8f04-a8285da17800"  >
</g>
<g transform="matrix(NaN NaN NaN NaN 0 0)"  >
<g style=""   >
</g>
</g>
<g transform="matrix(1.45 0 0 1.45 350 200)"  >
<g style=""   >
		<g transform="matrix(1 0 0 1 0 0)" id="Layer_1"  >
<polygon style="stroke: none; stroke-width: 1; stroke-dasharray: none; stroke-linecap: butt; stroke-dashoffset: 0; stroke-linejoin: miter; stroke-miterlimit: 4; fill: rgb(77,186,135); fill-rule: nonzero; opacity: 1;" vector-effect="non-scaling-stroke"  points="14.19,-53.21 0,-28.63 -14.19,-53.21 -61.44,-53.21 0,53.21 61.44,-53.21 14.19,-53.21 " />
</g>
		<g transform="matrix(1 0 0 1 0 -21.28)" id="Layer_1"  >
<polygon style="stroke: none; stroke-width: 1; stroke-dasharray: none; stroke-linecap: butt; stroke-dashoffset: 0; stroke-linejoin: miter; stroke-miterlimit: 4; fill: rgb(66,84,102); fill-rule: nonzero; opacity: 1;" vector-effect="non-scaling-stroke"  points="14.19,-31.93 0,-7.35 -14.19,-31.93 -36.86,-31.93 0,31.93 36.86,-31.93 14.19,-31.93 " />
</g>
</g>
</g>
<g transform="matrix(NaN NaN NaN NaN 0 0)"  >
<g style=""   >
</g>
</g>
</svg>